<?xml version="1.0" encoding="UTF-8" standalone="no"?>
<!-- Generator: Adobe Illustrator 16.0.0, SVG Export Plug-In . SVG Version: 6.00 Build 0)  -->

<svg
   xmlns:dc="http://purl.org/dc/elements/1.1/"
   xmlns:cc="http://creativecommons.org/ns#"
   xmlns:rdf="http://www.w3.org/1999/02/22-rdf-syntax-ns#"
   xmlns:svg="http://www.w3.org/2000/svg"
   xmlns="http://www.w3.org/2000/svg"
   xmlns:sodipodi="http://sodipodi.sourceforge.net/DTD/sodipodi-0.dtd"
   xmlns:inkscape="http://www.inkscape.org/namespaces/inkscape"
   version="1.1"
   id="Capa_1"
   x="0px"
   y="0px"
   width="892.44122"
   height="215.22363"
   viewBox="0 0 892.44124 215.22363"
   xml:space="preserve"
   sodipodi:docname="project-logo-wide.svg"
   inkscape:version="0.92.4 5da689c313, 2019-01-14"
   inkscape:export-filename="/home/norbert/Projects/cpp/nglibs/tempus-git/doc/images/project-logo-wide.png"
   inkscape:export-xdpi="44.604767"
   inkscape:export-ydpi="44.604767"><metadata
   id="metadata162"><rdf:RDF><cc:Work
       rdf:about=""><dc:format>image/svg+xml</dc:format><dc:type
         rdf:resource="http://purl.org/dc/dcmitype/StillImage" /><dc:title></dc:title></cc:Work></rdf:RDF></metadata><defs
   id="defs160" /><sodipodi:namedview
   pagecolor="#ffffff"
   bordercolor="#666666"
   borderopacity="1"
   objecttolerance="10"
   gridtolerance="10"
   guidetolerance="10"
   inkscape:pageopacity="0"
   inkscape:pageshadow="2"
   inkscape:window-width="1920"
   inkscape:window-height="1023"
   id="namedview158"
   showgrid="false"
   fit-margin-top="0"
   fit-margin-left="0"
   fit-margin-right="0"
   fit-margin-bottom="0"
   inkscape:zoom="0.59051531"
   inkscape:cx="-58.658187"
   inkscape:cy="-129.78659"
   inkscape:window-x="0"
   inkscape:window-y="0"
   inkscape:window-maximized="1"
   inkscape:current-layer="Capa_1" />
<rect
   style="opacity:1;fill:#c8beb7;fill-opacity:1;stroke:#000000;stroke-width:15;stroke-linecap:round;stroke-linejoin:bevel;stroke-miterlimit:4;stroke-dasharray:none;stroke-opacity:0.91705072;paint-order:stroke fill markers"
   id="rect975"
   width="877.44122"
   height="200.22363"
   x="7.5"
   y="7.5"
   ry="54.813961" />
<g
   id="g127"
   transform="translate(-783.34906,-305.09421)">
</g>
<g
   id="g129"
   transform="translate(-783.34906,-305.09421)">
</g>
<g
   id="g131"
   transform="translate(-783.34906,-305.09421)">
</g>
<g
   id="g133"
   transform="translate(-783.34906,-305.09421)">
</g>
<g
   id="g135"
   transform="translate(-783.34906,-305.09421)">
</g>
<g
   id="g137"
   transform="translate(-783.34906,-305.09421)">
</g>
<g
   id="g139"
   transform="translate(-783.34906,-305.09421)">
</g>
<g
   id="g141"
   transform="translate(-783.34906,-305.09421)">
</g>
<g
   id="g143"
   transform="translate(-783.34906,-305.09421)">
</g>
<g
   id="g145"
   transform="translate(-783.34906,-305.09421)">
</g>
<g
   id="g147"
   transform="translate(-783.34906,-305.09421)">
</g>
<g
   id="g149"
   transform="translate(-783.34906,-305.09421)">
</g>
<g
   id="g151"
   transform="translate(-783.34906,-305.09421)">
</g>
<g
   id="g153"
   transform="translate(-783.34906,-305.09421)">
</g>
<g
   id="g155"
   transform="translate(-783.34906,-305.09421)">
</g>
<g
   id="g1068"
   transform="translate(-784.34903,-305.09422)"><g
     style="fill:#0044aa;stroke:none;stroke-width:18.26948166;stroke-linecap:round;stroke-linejoin:bevel;stroke-miterlimit:4;stroke-dasharray:none;stroke-opacity:1;paint-order:stroke fill markers"
     transform="matrix(0.21894437,0,0,0.21894437,1517.5864,374.93896)"
     id="g125">
	<g
   style="fill:#0044aa;stroke:none;stroke-width:18.26948166;stroke-linecap:round;stroke-linejoin:bevel;stroke-miterlimit:4;stroke-dasharray:none;stroke-opacity:1;paint-order:stroke fill markers"
   id="Layer_2_18_">
		<g
   style="fill:#0044aa;stroke:none;stroke-width:18.26948166;stroke-linecap:round;stroke-linejoin:bevel;stroke-miterlimit:4;stroke-dasharray:none;stroke-opacity:1;paint-order:stroke fill markers"
   id="g122">
			<path
   style="fill:#0044aa;stroke:none;stroke-width:18.26948166;stroke-linecap:round;stroke-linejoin:bevel;stroke-miterlimit:4;stroke-dasharray:none;stroke-opacity:1;paint-order:stroke fill markers"
   inkscape:connector-curvature="0"
   id="path106"
   d="m 311.409,251.414 c 5.32,-1.537 17.778,-5.145 23.569,-22.177 l 11.931,-35.086 4.799,1.63 c 2.197,0.748 4.605,-0.438 5.353,-2.635 l 6.401,-18.824 c 0.748,-2.197 -0.438,-4.604 -2.637,-5.351 L 206.154,116.379 c -2.196,-0.747 -4.606,0.44 -5.353,2.636 l -6.401,18.823 c -0.746,2.196 0.441,4.604 2.636,5.352 l 4.799,1.632 -12.145,35.725 c -5.735,16.865 -1.941,22.56 5.255,31.179 l 31.299,37.48 -3.489,10.26 c -11.976,2.599 -43.272,9.418 -47.485,10.635 -5.319,1.539 -17.78,5.143 -23.572,22.177 l -10.271,30.21 -4.8,-1.631 c -2.195,-0.747 -4.606,0.438 -5.354,2.635 l -6.398,18.823 c -0.748,2.197 0.439,4.604 2.636,5.353 l 154.672,52.593 c 2.194,0.746 4.604,-0.44 5.352,-2.638 l 6.397,-18.82 c 0.749,-2.197 -0.437,-4.606 -2.636,-5.354 l -4.797,-1.632 10.486,-30.849 c 5.735,-16.863 1.944,-22.561 -5.254,-31.176 l -31.297,-37.481 3.486,-10.26 c 11.977,-2.598 43.273,-9.416 47.489,-10.637 z m -65.366,27.357 34.035,40.753 c 2.611,3.127 3.994,4.834 4.369,6.397 0.451,1.877 -0.152,5.201 -1.838,10.156 l -10.488,30.851 -116.316,-39.55 10.269,-30.209 c 3.243,-9.535 9.122,-11.237 13.413,-12.479 3.356,-0.97 32.146,-7.282 50.679,-11.291 2.604,-0.563 4.725,-2.454 5.583,-4.978 l 6.245,-18.365 c 0.851,-2.508 0.337,-5.277 -1.36,-7.31 l -33.932,-40.631 -0.103,-0.125 c -2.612,-3.127 -3.995,-4.834 -4.369,-6.398 -0.45,-1.877 0.15,-5.198 1.837,-10.156 l 12.146,-35.725 116.319,39.55 -11.932,35.087 c -3.241,9.537 -9.118,11.237 -13.41,12.479 -3.354,0.971 -32.145,7.285 -50.676,11.291 -2.605,0.564 -4.728,2.453 -5.587,4.979 l -6.243,18.363 c -0.853,2.509 -0.336,5.276 1.359,7.311 z" />
			<path
   style="fill:#0044aa;stroke:none;stroke-width:18.26948166;stroke-linecap:round;stroke-linejoin:bevel;stroke-miterlimit:4;stroke-dasharray:none;stroke-opacity:1;paint-order:stroke fill markers"
   inkscape:connector-curvature="0"
   id="path108"
   d="m 337.935,423.581 c -3.395,1.924 -6.896,3.766 -10.399,5.474 -0.567,0.277 -1.114,0.58 -1.643,0.907 -0.562,0.195 -1.121,0.422 -1.676,0.68 -15.206,7.09 -31.062,12.082 -47.396,14.977 -0.209,0.03 -0.418,0.042 -0.629,0.08 -3.851,0.681 -7.77,1.248 -11.646,1.692 -0.042,0.007 -0.085,0.017 -0.127,0.022 -7.118,0.785 -14.316,1.186 -21.589,1.186 -83.862,0 -155.381,-53.81 -181.88,-128.71 -0.399,-1.143 -0.801,-2.283 -1.18,-3.428 -6.352,-19.101 -9.802,-39.515 -9.802,-60.722 0,-21.251 3.465,-41.71 9.844,-60.846 0.139,-0.418 0.273,-0.833 0.414,-1.252 0.381,-1.114 0.775,-2.224 1.177,-3.331 0.187,-0.52 0.376,-1.037 0.568,-1.553 22.02,-59.268 72.388,-104.863 134.541,-120.242 0.039,-0.009 0.079,-0.012 0.118,-0.021 0.919,-0.228 1.845,-0.45 2.772,-0.664 0.104,-0.023 0.204,-0.061 0.304,-0.086 13.559,-3.108 27.658,-4.779 42.126,-4.853 l 0.167,19.829 c 0.051,6.156 3.938,7.934 8.632,3.955 l 41.886,-35.504 c 4.693,-3.979 4.643,-10.43 -0.123,-14.33 L 249.92,2.045 c -4.762,-3.899 -8.616,-2.056 -8.564,4.099 l 0.167,19.79 c -60.9,0.337 -118.103,24.199 -161.204,67.298 -4.246,4.246 -8.298,8.632 -12.165,13.141 -0.023,0.026 -0.047,0.047 -0.071,0.075 -0.143,0.166 -0.278,0.339 -0.419,0.505 -33.925,39.809 -53.051,89.425 -54.552,142.061 -0.037,0.409 -0.081,0.815 -0.091,1.233 -0.041,1.756 -0.062,3.541 -0.062,5.306 0,2.894 0.059,5.827 0.168,8.72 0.012,0.339 0.056,0.67 0.089,1.003 1.944,47.958 18.527,93.3 47.621,130.856 0.099,0.129 0.178,0.267 0.278,0.396 2.842,3.668 5.847,7.302 8.92,10.798 0.198,0.225 0.415,0.42 0.619,0.634 3.111,3.508 6.323,6.944 9.666,10.286 34.123,34.124 77.088,56.187 123.726,64.068 0.142,0.026 0.285,0.054 0.427,0.08 0.106,0.016 0.211,0.023 0.315,0.039 12.455,2.062 25.167,3.129 38.042,3.129 33.881,0 66.517,-7.209 97.004,-21.42 0.657,-0.306 1.281,-0.657 1.882,-1.028 0.683,-0.235 1.354,-0.514 2.016,-0.837 4.183,-2.042 8.361,-4.236 12.412,-6.529 8.882,-5.03 12.008,-16.306 6.979,-25.188 -5.031,-8.883 -16.308,-12.005 -25.188,-6.979 z" />
			<path
   style="fill:#0044aa;stroke:none;stroke-width:18.26948166;stroke-linecap:round;stroke-linejoin:bevel;stroke-miterlimit:4;stroke-dasharray:none;stroke-opacity:1;paint-order:stroke fill markers"
   inkscape:connector-curvature="0"
   id="path110"
   d="m 402.976,148.173 c 3.567,5.309 9.407,8.174 15.354,8.174 3.544,0 7.13,-1.017 10.292,-3.143 8.471,-5.693 10.723,-17.174 5.03,-25.646 -2.599,-3.865 -5.345,-7.698 -8.176,-11.391 -6.2,-8.108 -17.798,-9.65 -25.905,-3.45 -8.106,6.202 -9.65,17.802 -3.446,25.907 2.371,3.101 4.676,6.314 6.851,9.549 z" />
			<path
   style="fill:#0044aa;stroke:none;stroke-width:18.26948166;stroke-linecap:round;stroke-linejoin:bevel;stroke-miterlimit:4;stroke-dasharray:none;stroke-opacity:1;paint-order:stroke fill markers"
   inkscape:connector-curvature="0"
   id="path112"
   d="m 426.446,196.708 c 1.188,3.711 2.279,7.516 3.247,11.311 2.131,8.36 9.648,13.921 17.896,13.921 1.509,0 3.047,-0.187 4.577,-0.577 9.891,-2.52 15.866,-12.583 13.345,-22.472 -1.15,-4.513 -2.45,-9.04 -3.866,-13.456 -3.11,-9.72 -13.514,-15.079 -23.233,-11.965 -9.722,3.114 -15.079,13.518 -11.966,23.238 z" />
			<path
   style="fill:#0044aa;stroke:none;stroke-width:18.26948166;stroke-linecap:round;stroke-linejoin:bevel;stroke-miterlimit:4;stroke-dasharray:none;stroke-opacity:1;paint-order:stroke fill markers"
   inkscape:connector-curvature="0"
   id="path114"
   d="m 414.674,380.14 c -7.724,-6.675 -19.391,-5.828 -26.067,1.892 -2.556,2.956 -5.232,5.869 -7.958,8.657 -7.134,7.301 -6.998,19.001 0.304,26.136 3.595,3.513 8.257,5.263 12.913,5.263 4.803,0 9.602,-1.862 13.221,-5.566 3.246,-3.323 6.438,-6.792 9.479,-10.313 6.673,-7.723 5.827,-19.394 -1.892,-26.069 z" />
			<path
   style="fill:#0044aa;stroke:none;stroke-width:18.26948166;stroke-linecap:round;stroke-linejoin:bevel;stroke-miterlimit:4;stroke-dasharray:none;stroke-opacity:1;paint-order:stroke fill markers"
   inkscape:connector-curvature="0"
   id="path116"
   d="m 454.675,243.736 c -10.219,-0.307 -18.722,7.719 -19.024,17.92 -0.115,3.907 -0.356,7.859 -0.714,11.745 -0.933,10.163 6.551,19.16 16.715,20.093 0.574,0.053 1.144,0.078 1.711,0.078 9.44,0 17.503,-7.203 18.381,-16.792 0.426,-4.639 0.714,-9.354 0.852,-14.019 0.301,-10.199 -7.718,-18.72 -17.921,-19.025 z" />
			<path
   style="fill:#0044aa;stroke:none;stroke-width:18.26948166;stroke-linecap:round;stroke-linejoin:bevel;stroke-miterlimit:4;stroke-dasharray:none;stroke-opacity:1;paint-order:stroke fill markers"
   inkscape:connector-curvature="0"
   id="path118"
   d="m 446.456,315.401 c -9.509,-3.723 -20.228,0.966 -23.949,10.472 -1.423,3.635 -2.978,7.28 -4.623,10.828 -4.29,9.26 -0.261,20.244 9,24.535 2.517,1.166 5.157,1.717 7.758,1.717 6.978,0 13.654,-3.97 16.78,-10.716 1.956,-4.224 3.81,-8.559 5.503,-12.889 3.722,-9.503 -0.966,-20.225 -10.469,-23.947 z" />
			<path
   style="fill:#0044aa;stroke:none;stroke-width:18.26948166;stroke-linecap:round;stroke-linejoin:bevel;stroke-miterlimit:4;stroke-dasharray:none;stroke-opacity:1;paint-order:stroke fill markers"
   inkscape:connector-curvature="0"
   id="path120"
   d="m 383.518,96.938 c 6.075,-8.204 4.35,-19.777 -3.854,-25.851 -3.735,-2.767 -7.608,-5.454 -11.51,-7.992 -8.557,-5.563 -20.004,-3.139 -25.567,5.418 -5.562,8.556 -3.139,20.002 5.416,25.567 3.279,2.13 6.529,4.389 9.668,6.713 3.306,2.447 7.161,3.629 10.984,3.629 5.656,0 11.24,-2.589 14.863,-7.484 z" />
		</g>
	</g>
</g><text
     id="text166"
     y="479.90604"
     x="814.54285"
     style="font-style:normal;font-variant:normal;font-weight:normal;font-stretch:normal;font-size:192px;line-height:25px;font-family:Ailerons;-inkscape-font-specification:'Ailerons, Normal';font-variant-ligatures:normal;font-variant-caps:normal;font-variant-numeric:normal;font-feature-settings:normal;text-align:start;letter-spacing:0px;word-spacing:0px;writing-mode:lr-tb;text-anchor:start;fill:#1c1c24;fill-opacity:1;stroke:none;stroke-width:4;stroke-linecap:butt;stroke-linejoin:miter;stroke-miterlimit:4;stroke-dasharray:none;stroke-opacity:1;paint-order:stroke fill markers"
     xml:space="preserve"><tspan
       style="font-style:normal;font-variant:normal;font-weight:normal;font-stretch:normal;font-size:192px;font-family:Ailerons;-inkscape-font-specification:'Ailerons, Normal';font-variant-ligatures:normal;font-variant-caps:normal;font-variant-numeric:normal;font-feature-settings:normal;text-align:start;writing-mode:lr-tb;text-anchor:start;fill:#1c1c24;stroke:none;stroke-width:4;stroke-miterlimit:4;stroke-dasharray:none;stroke-opacity:1;paint-order:stroke fill markers"
       y="479.90604"
       x="814.54285"
       id="tspan164"
       sodipodi:role="line">tempus</tspan></text>
</g></svg>